HIERARCHY
ROOT Hips
{
	OFFSET -0.001795 -0.223333 0.028219
	CHANNELS 6 Xposition Yposition Zposition Zrotation Yrotation Xrotation 
	JOINT LeftUpLeg
	{
		OFFSET 0.069520 -0.091406 -0.006815
		CHANNELS 3 Zrotation Yrotation Xrotation
		JOINT LeftLeg
		{
			OFFSET 0.034277 -0.375199 -0.004496
			CHANNELS 3 Zrotation Yrotation Xrotation
			JOINT LeftFoot
			{
				OFFSET -0.013596 -0.397961 -0.043693
				CHANNELS 3 Zrotation Yrotation Xrotation
				JOINT LeftToe
				{
					OFFSET 0.026358 -0.055791 0.119288
					CHANNELS 3 Zrotation Yrotation Xrotation
					End Site
					{
						OFFSET 0.000000 0.000000 0.000000
					}
				}
			}
		}
	}
	JOINT RightUpLeg
	{
		OFFSET -0.067670 -0.090522 -0.004320
		CHANNELS 3 Zrotation Yrotation Xrotation
		JOINT RightLeg
		{
			OFFSET -0.038290 -0.382569 -0.008850
			CHANNELS 3 Zrotation Yrotation Xrotation
			JOINT RightFoot
			{
				OFFSET 0.015774 -0.398415 -0.042312
				CHANNELS 3 Zrotation Yrotation Xrotation
				JOINT RightToe
				{
					OFFSET -0.025372 -0.048144 0.123348
					CHANNELS 3 Zrotation Yrotation Xrotation
					End Site
					{
						OFFSET 0.000000 0.000000 0.000000
					}
				}
			}
		}
	}
	JOINT Spine
	{
		OFFSET -0.002533 0.108963 -0.026696
		CHANNELS 3 Zrotation Yrotation Xrotation
		JOINT Spine1
		{
			OFFSET 0.005487 0.135180 0.001092
			CHANNELS 3 Zrotation Yrotation Xrotation
			JOINT Spine2
			{
				OFFSET 0.001457 0.052922 0.025425
				CHANNELS 3 Zrotation Yrotation Xrotation
				JOINT Neck
				{
					OFFSET -0.002778 0.213870 -0.042857
					CHANNELS 3 Zrotation Yrotation Xrotation
					JOINT Head
					{
						OFFSET 0.005152 0.064970 0.051349
						CHANNELS 3 Zrotation Yrotation Xrotation
						End Site
						{
							OFFSET 0.000000 0.000000 0.000000
						}
					}
				}
				JOINT LeftShoulder
				{
					OFFSET 0.078845 0.121749 -0.034090
					CHANNELS 3 Zrotation Yrotation Xrotation
					JOINT LeftArm
					{
						OFFSET 0.090977 0.030469 -0.008868
						CHANNELS 3 Zrotation Yrotation Xrotation
						JOINT LeftForeArm
						{
							OFFSET 0.259612 -0.012772 -0.027456
							CHANNELS 3 Zrotation Yrotation Xrotation
							JOINT LeftHand
							{
								OFFSET 0.249234 0.008986 -0.001171
								CHANNELS 3 Zrotation Yrotation Xrotation
								End Site
								{
									OFFSET 0.000000 0.000000 0.000000
								}
							}
						}
					}
				}
				JOINT RightShoulder
				{
					OFFSET -0.081759 0.118833 -0.038615
					CHANNELS 3 Zrotation Yrotation Xrotation
					JOINT RightArm
					{
						OFFSET -0.096012 0.032551 -0.009143
						CHANNELS 3 Zrotation Yrotation Xrotation
						JOINT RightForeArm
						{
							OFFSET -0.253742 -0.013329 -0.021401
							CHANNELS 3 Zrotation Yrotation Xrotation
							JOINT RightHand
							{
								OFFSET -0.255298 0.007772 -0.005559
								CHANNELS 3 Zrotation Yrotation Xrotation
								End Site
								{
									OFFSET 0.000000 0.000000 0.000000
								}
							}
						}
					}
				}
			}
		}
	}
}
MOTION
Frames: 9
Frame Time: 0.050000
0.323345 0.921931 -3.526742 -0.406254 6.458535 1.289995 8.180356 -1.297357 -29.500579 -10.912031 2.766496 44.027887 12.972603 25.471033 7.571783 0.000000 0.000000 0.000000 6.772485 -0.053931 -0.430890 -2.878344 1.268051 18.177167 -0.140846 6.730083 -12.296788 0.000000 0.000000 0.000000 3.560787 -1.541952 17.939612 0.657441 0.537167 -23.101779 -0.107207 20.910447 27.099547 14.076340 -2.131594 -27.876213 0.000000 0.000000 0.000000 -6.814199 -3.915936 -1.509986 -61.590290 -2.790744 -10.229970 -3.398493 -32.684285 0.425003 0.000000 0.000000 0.000000 8.369194 -1.617486 1.112458 69.449070 17.654267 6.431048 -12.814720 34.195992 -0.013538 0.000000 0.000000 0.000000 
0.331015 0.908029 -3.462060 -0.077512 -0.293169 0.813458 8.113853 -0.771911 -33.611508 -8.565446 2.414724 32.462868 11.457992 22.824416 6.237743 0.000000 0.000000 0.000000 4.237270 -0.981585 6.343700 -3.629766 1.489909 15.019203 0.519960 13.530572 -14.490984 0.000000 0.000000 0.000000 1.700908 -1.100452 19.470015 2.144596 0.039398 -22.977932 -0.844697 24.691697 26.262441 14.596720 -2.697466 -26.787907 0.000000 0.000000 0.000000 -7.028916 -4.217894 -1.394786 -60.195872 -0.956980 -10.679866 -3.988411 -30.765105 0.666522 0.000000 0.000000 0.000000 10.104440 -0.391672 2.067974 67.676693 21.496142 7.864264 -12.453747 37.254892 0.100008 0.000000 0.000000 0.000000 
0.339242 0.891335 -3.391256 -0.172113 -6.062590 1.056993 7.913772 -0.098650 -36.170742 -4.331954 0.871755 19.494165 9.817993 19.546314 10.818335 0.000000 0.000000 0.000000 2.009304 -1.228788 10.892373 -5.534087 2.021364 14.699164 0.600355 17.692533 -16.030202 0.000000 0.000000 0.000000 1.187495 -0.784588 18.897396 0.980037 0.161414 -21.304230 -0.892528 26.590076 24.845734 17.452373 -4.205637 -28.590654 0.000000 0.000000 0.000000 -5.246939 -3.934571 -0.748115 -61.002087 -0.713645 -11.153187 -3.657080 -27.544195 0.732460 0.000000 0.000000 0.000000 10.637506 -0.401169 1.973463 67.500438 24.208867 9.420577 -10.953377 39.672018 0.506382 0.000000 0.000000 0.000000 
0.346845 0.876036 -3.312442 0.016024 -12.073085 1.492851 8.862791 1.177722 -37.594521 -4.981786 1.069450 13.462413 9.131497 17.764998 14.063702 0.000000 0.000000 0.000000 -1.460753 -0.778674 14.867446 -6.208498 2.219824 14.419222 3.062768 22.930586 -12.669560 0.000000 0.000000 0.000000 -0.537398 -0.269162 17.770168 -0.316539 0.383005 -21.157609 0.615501 27.483801 25.022216 16.380582 -4.383192 -26.845812 0.000000 0.000000 0.000000 -5.191937 -4.480472 -0.247049 -59.892832 -0.463470 -10.782664 -4.873934 -23.571696 1.151644 0.000000 0.000000 0.000000 11.135959 1.396839 2.647386 66.480917 24.660904 8.786561 -6.533759 43.494611 2.027646 0.000000 0.000000 0.000000 
0.353796 0.865773 -3.225881 -0.022806 -16.602991 2.425671 9.828438 2.406352 -38.966983 -7.413020 2.145106 16.697622 9.498889 17.642431 18.481116 0.000000 0.000000 0.000000 -4.725046 0.104722 16.849514 -6.458757 2.593380 16.238851 5.827523 24.709246 -7.838851 0.000000 0.000000 0.000000 -1.106884 -0.085752 14.786301 -0.754477 0.379206 -20.195173 -0.630067 26.760052 24.938705 14.137851 -3.625173 -26.316485 0.000000 0.000000 0.000000 -5.051505 -3.529964 -0.240867 -59.275917 0.177750 -10.711290 -3.438956 -22.182816 1.010684 0.000000 0.000000 0.000000 12.622772 2.903192 3.233137 65.327136 23.487402 6.923998 0.362730 46.588184 4.779505 0.000000 0.000000 0.000000 
0.361787 0.863020 -3.134787 0.121527 -20.208389 1.874640 10.924142 3.418317 -38.357721 -11.449024 5.426171 27.682504 10.649265 19.342629 14.158205 0.000000 0.000000 0.000000 -7.769964 0.875489 13.318206 -6.804224 5.220048 28.860761 14.021294 26.330702 6.957346 0.000000 0.000000 0.000000 -1.508324 0.035622 14.186564 -2.600302 0.807246 -20.534372 0.261513 25.522773 25.637839 12.977541 -3.358563 -26.927558 0.000000 0.000000 0.000000 -4.963927 -2.853267 -0.169060 -58.451006 -0.097583 -10.144003 -3.374500 -19.685061 1.056167 0.000000 0.000000 0.000000 11.621392 2.991256 2.622180 67.282683 20.650582 5.206364 3.917913 46.185990 5.944081 0.000000 0.000000 0.000000 
0.371298 0.867856 -3.047540 0.992944 -20.606821 1.036453 8.888714 2.356585 -36.142441 -14.019567 8.487099 35.217009 9.657561 18.595840 7.015914 0.000000 0.000000 0.000000 -8.156276 0.701190 5.354674 -6.381012 10.066631 46.893573 15.343389 16.170227 19.848256 0.000000 0.000000 0.000000 -2.424303 0.177380 14.019039 -2.181494 0.683772 -20.354323 -1.181798 21.640559 25.349285 12.392743 -3.844675 -26.096996 0.000000 0.000000 0.000000 -6.382852 -2.757453 -0.055172 -55.737669 -0.473349 -9.003218 -4.022978 -21.738732 1.433984 0.000000 0.000000 0.000000 12.118887 3.330419 2.244059 67.760277 15.232981 1.287825 7.728444 44.061829 6.607313 0.000000 0.000000 0.000000 
0.381134 0.877618 -2.968657 0.947126 -21.847038 -0.133108 6.505572 1.034631 -30.558171 -13.445137 9.488507 38.354463 9.430473 18.921200 1.153513 0.000000 0.000000 0.000000 -5.232712 0.658361 -5.742797 -4.105668 15.558388 65.274571 7.988748 5.285979 17.973745 0.000000 0.000000 0.000000 -1.464390 0.115474 15.796274 -2.710930 0.819294 -20.753589 -2.450013 19.275657 25.618378 10.880533 -3.337742 -26.640585 0.000000 0.000000 0.000000 -4.419291 -2.879328 0.488604 -55.935836 -3.041773 -7.784619 -5.451877 -23.399017 1.965120 0.000000 0.000000 0.000000 12.644549 2.521998 1.416386 68.563710 10.477467 -2.022918 6.557427 39.624835 5.043627 0.000000 0.000000 0.000000 
0.390448 0.892269 -2.895487 1.562374 -20.929880 -1.964448 2.081030 -0.679047 -22.980576 -12.122415 8.365220 36.403823 8.851316 18.304837 -0.284167 0.000000 0.000000 0.000000 -1.640768 1.750022 -16.208561 1.079635 14.291706 75.516138 1.345702 -3.087523 11.653865 0.000000 0.000000 0.000000 -1.500797 0.215735 18.534088 -0.664599 0.293240 -20.986042 -4.985506 15.202910 25.480655 10.288664 -3.458573 -27.275863 0.000000 0.000000 0.000000 -4.487554 -1.952866 0.357281 -56.439032 -4.909467 -6.714604 -3.131989 -26.260056 1.885541 0.000000 0.000000 0.000000 12.656970 2.486037 0.863882 68.244379 5.508751 -5.489258 4.647130 35.009205 3.448342 0.000000 0.000000 0.000000 
